<mxfile host="app.diagrams.net" modified="2023-11-08T12:39:32.594Z" agent="Mozilla/5.0 (Windows NT 10.0; Win64; x64) AppleWebKit/537.36 (KHTML, like Gecko) Chrome/119.0.0.0 Safari/537.36" etag="i7eypYOJCEqba8p19XT2" version="22.0.8" type="device">
  <diagram id="cX9Rxq1GDXvq4FwfHjqG" name="Page-1">
    <mxGraphModel dx="2284" dy="800" grid="1" gridSize="10" guides="1" tooltips="1" connect="1" arrows="1" fold="1" page="1" pageScale="1" pageWidth="850" pageHeight="1100" math="0" shadow="0">
      <root>
        <mxCell id="0" />
        <mxCell id="1" parent="0" />
        <object label="" kardinalnost="(0,M)" id="p6OjkSHZk2NeHFK_y6Gc-2">
          <mxCell style="rounded=0;orthogonalLoop=1;jettySize=auto;html=1;exitX=0.5;exitY=1;exitDx=0;exitDy=0;endArrow=none;endFill=0;targetPerimeterSpacing=0;entryX=0.5;entryY=0;entryDx=0;entryDy=0;" parent="1" target="dR7-cXVYRjZlP15LV4le-50" edge="1">
            <mxGeometry relative="1" as="geometry">
              <mxPoint x="169.5" y="330" as="targetPoint" />
              <mxPoint x="169.5" y="200" as="sourcePoint" />
            </mxGeometry>
          </mxCell>
        </object>
        <mxCell id="p6OjkSHZk2NeHFK_y6Gc-15" value="&lt;font style=&quot;font-size: 12px;&quot;&gt;(1,1)&amp;nbsp; Evidentiran&lt;/font&gt;" style="edgeLabel;html=1;align=center;verticalAlign=middle;resizable=0;points=[];fontSize=12;" parent="p6OjkSHZk2NeHFK_y6Gc-2" vertex="1" connectable="0">
          <mxGeometry x="-0.7692" y="3" relative="1" as="geometry">
            <mxPoint x="26" y="7" as="offset" />
          </mxGeometry>
        </mxCell>
        <mxCell id="dR7-cXVYRjZlP15LV4le-53" style="rounded=0;orthogonalLoop=1;jettySize=auto;html=1;exitX=0.75;exitY=0;exitDx=0;exitDy=0;entryX=0.5;entryY=1;entryDx=0;entryDy=0;endArrow=none;endFill=0;" parent="1" source="p6OjkSHZk2NeHFK_y6Gc-1" target="dR7-cXVYRjZlP15LV4le-54" edge="1">
          <mxGeometry relative="1" as="geometry">
            <mxPoint x="217.52941176470586" y="70" as="targetPoint" />
          </mxGeometry>
        </mxCell>
        <mxCell id="dR7-cXVYRjZlP15LV4le-65" style="rounded=0;orthogonalLoop=1;jettySize=auto;html=1;exitX=1;exitY=1;exitDx=0;exitDy=0;endArrow=none;endFill=0;" parent="1" source="p6OjkSHZk2NeHFK_y6Gc-1" edge="1">
          <mxGeometry relative="1" as="geometry">
            <mxPoint x="320" y="220" as="targetPoint" />
          </mxGeometry>
        </mxCell>
        <mxCell id="p6OjkSHZk2NeHFK_y6Gc-1" value="&lt;font style=&quot;font-size: 14px;&quot;&gt;Evidencija o osposobljavanju zaposlenih&lt;/font&gt;" style="rounded=0;whiteSpace=wrap;html=1;fontSize=14;" parent="1" vertex="1">
          <mxGeometry x="120" y="120" width="130" height="80" as="geometry" />
        </mxCell>
        <mxCell id="dR7-cXVYRjZlP15LV4le-43" style="rounded=0;orthogonalLoop=1;jettySize=auto;html=1;exitX=1;exitY=0.5;exitDx=0;exitDy=0;entryX=0;entryY=0.5;entryDx=0;entryDy=0;endArrow=none;endFill=0;" parent="1" source="dR7-cXVYRjZlP15LV4le-46" target="dR7-cXVYRjZlP15LV4le-42" edge="1">
          <mxGeometry relative="1" as="geometry">
            <mxPoint x="235" y="355" as="sourcePoint" />
          </mxGeometry>
        </mxCell>
        <mxCell id="p6OjkSHZk2NeHFK_y6Gc-17" value="" style="endArrow=none;html=1;rounded=0;entryX=0;entryY=0.5;entryDx=0;entryDy=0;exitX=1;exitY=0.5;exitDx=0;exitDy=0;" parent="1" source="dR7-cXVYRjZlP15LV4le-47" target="dR7-cXVYRjZlP15LV4le-46" edge="1">
          <mxGeometry width="50" height="50" relative="1" as="geometry">
            <mxPoint x="34.000000000000455" y="352.9999999999998" as="sourcePoint" />
            <mxPoint x="125" y="342.5" as="targetPoint" />
          </mxGeometry>
        </mxCell>
        <mxCell id="p6OjkSHZk2NeHFK_y6Gc-18" value="&lt;font style=&quot;font-size: 14px;&quot;&gt;Poslodavac&lt;/font&gt;" style="whiteSpace=wrap;html=1;align=center;" parent="1" vertex="1">
          <mxGeometry x="630" y="150" width="100" height="40" as="geometry" />
        </mxCell>
        <mxCell id="p6OjkSHZk2NeHFK_y6Gc-20" value="" style="edgeStyle=orthogonalEdgeStyle;rounded=0;orthogonalLoop=1;jettySize=auto;html=1;endArrow=none;endFill=0;" parent="1" source="p6OjkSHZk2NeHFK_y6Gc-19" target="p6OjkSHZk2NeHFK_y6Gc-1" edge="1">
          <mxGeometry relative="1" as="geometry" />
        </mxCell>
        <mxCell id="p6OjkSHZk2NeHFK_y6Gc-23" value="&lt;font style=&quot;font-size: 12px;&quot;&gt;(1,1) Overena&lt;/font&gt;" style="edgeLabel;html=1;align=center;verticalAlign=middle;resizable=0;points=[];fontSize=12;" parent="p6OjkSHZk2NeHFK_y6Gc-20" vertex="1" connectable="0">
          <mxGeometry x="0.3385" y="1" relative="1" as="geometry">
            <mxPoint y="-11" as="offset" />
          </mxGeometry>
        </mxCell>
        <mxCell id="p6OjkSHZk2NeHFK_y6Gc-21" style="edgeStyle=orthogonalEdgeStyle;rounded=0;orthogonalLoop=1;jettySize=auto;html=1;exitX=1;exitY=0.5;exitDx=0;exitDy=0;entryX=0;entryY=0.5;entryDx=0;entryDy=0;endArrow=none;endFill=0;" parent="1" source="p6OjkSHZk2NeHFK_y6Gc-19" target="p6OjkSHZk2NeHFK_y6Gc-18" edge="1">
          <mxGeometry relative="1" as="geometry" />
        </mxCell>
        <mxCell id="p6OjkSHZk2NeHFK_y6Gc-24" value="(0,M) Overava" style="edgeLabel;html=1;align=center;verticalAlign=middle;resizable=0;points=[];fontSize=12;" parent="p6OjkSHZk2NeHFK_y6Gc-21" vertex="1" connectable="0">
          <mxGeometry x="-0.0364" y="3" relative="1" as="geometry">
            <mxPoint x="-3" y="-7" as="offset" />
          </mxGeometry>
        </mxCell>
        <mxCell id="p6OjkSHZk2NeHFK_y6Gc-19" value="overavanje evidencije" style="shape=rhombus;perimeter=rhombusPerimeter;whiteSpace=wrap;html=1;align=center;" parent="1" vertex="1">
          <mxGeometry x="370" y="135" width="150" height="70" as="geometry" />
        </mxCell>
        <mxCell id="p6OjkSHZk2NeHFK_y6Gc-25" value="adresa" style="ellipse;whiteSpace=wrap;html=1;align=center;" parent="1" vertex="1">
          <mxGeometry x="520" y="60" width="80" height="40" as="geometry" />
        </mxCell>
        <mxCell id="p6OjkSHZk2NeHFK_y6Gc-26" value="" style="endArrow=none;html=1;rounded=0;entryX=0.16;entryY=0.025;entryDx=0;entryDy=0;exitX=1;exitY=1;exitDx=0;exitDy=0;entryPerimeter=0;" parent="1" source="p6OjkSHZk2NeHFK_y6Gc-25" target="p6OjkSHZk2NeHFK_y6Gc-18" edge="1">
          <mxGeometry width="50" height="50" relative="1" as="geometry">
            <mxPoint x="660" y="290" as="sourcePoint" />
            <mxPoint x="715" y="238" as="targetPoint" />
          </mxGeometry>
        </mxCell>
        <mxCell id="p6OjkSHZk2NeHFK_y6Gc-27" value="PIB#" style="ellipse;whiteSpace=wrap;html=1;align=center;" parent="1" vertex="1">
          <mxGeometry x="760" y="99" width="60" height="30" as="geometry" />
        </mxCell>
        <mxCell id="p6OjkSHZk2NeHFK_y6Gc-28" value="" style="endArrow=none;html=1;rounded=0;entryX=1;entryY=0;entryDx=0;entryDy=0;exitX=0;exitY=1;exitDx=0;exitDy=0;" parent="1" source="p6OjkSHZk2NeHFK_y6Gc-27" target="p6OjkSHZk2NeHFK_y6Gc-18" edge="1">
          <mxGeometry width="50" height="50" relative="1" as="geometry">
            <mxPoint x="620" y="220" as="sourcePoint" />
            <mxPoint x="715" y="213" as="targetPoint" />
          </mxGeometry>
        </mxCell>
        <mxCell id="p6OjkSHZk2NeHFK_y6Gc-31" value="poslovno ime" style="ellipse;whiteSpace=wrap;html=1;align=center;" parent="1" vertex="1">
          <mxGeometry x="640" y="40" width="80" height="40" as="geometry" />
        </mxCell>
        <mxCell id="p6OjkSHZk2NeHFK_y6Gc-32" value="" style="endArrow=none;html=1;rounded=0;entryX=0.63;entryY=0.025;entryDx=0;entryDy=0;exitX=0.5;exitY=1;exitDx=0;exitDy=0;entryPerimeter=0;" parent="1" source="p6OjkSHZk2NeHFK_y6Gc-31" target="p6OjkSHZk2NeHFK_y6Gc-18" edge="1">
          <mxGeometry width="50" height="50" relative="1" as="geometry">
            <mxPoint x="780" y="280" as="sourcePoint" />
            <mxPoint x="875" y="263" as="targetPoint" />
          </mxGeometry>
        </mxCell>
        <mxCell id="p6OjkSHZk2NeHFK_y6Gc-33" value="id#" style="ellipse;whiteSpace=wrap;html=1;align=center;" parent="1" vertex="1">
          <mxGeometry x="300" y="70" width="70" height="30" as="geometry" />
        </mxCell>
        <mxCell id="p6OjkSHZk2NeHFK_y6Gc-34" value="" style="endArrow=none;html=1;rounded=0;entryX=1;entryY=0;entryDx=0;entryDy=0;exitX=0.28;exitY=0.95;exitDx=0;exitDy=0;exitPerimeter=0;" parent="1" source="p6OjkSHZk2NeHFK_y6Gc-33" target="p6OjkSHZk2NeHFK_y6Gc-1" edge="1">
          <mxGeometry width="50" height="50" relative="1" as="geometry">
            <mxPoint x="220" y="279" as="sourcePoint" />
            <mxPoint x="206" y="140" as="targetPoint" />
          </mxGeometry>
        </mxCell>
        <mxCell id="p6OjkSHZk2NeHFK_y6Gc-37" style="edgeStyle=orthogonalEdgeStyle;rounded=0;orthogonalLoop=1;jettySize=auto;html=1;exitX=1;exitY=0.5;exitDx=0;exitDy=0;entryX=0;entryY=0.5;entryDx=0;entryDy=0;endArrow=none;endFill=0;" parent="1" source="p6OjkSHZk2NeHFK_y6Gc-39" target="p6OjkSHZk2NeHFK_y6Gc-1" edge="1">
          <mxGeometry relative="1" as="geometry">
            <mxPoint x="80" y="165" as="targetPoint" />
          </mxGeometry>
        </mxCell>
        <mxCell id="p6OjkSHZk2NeHFK_y6Gc-38" value="(1,1) Overeno od strane" style="edgeLabel;html=1;align=center;verticalAlign=middle;resizable=0;points=[];fontSize=12;" parent="p6OjkSHZk2NeHFK_y6Gc-37" vertex="1" connectable="0">
          <mxGeometry x="-0.0364" y="3" relative="1" as="geometry">
            <mxPoint x="-2" y="-18" as="offset" />
          </mxGeometry>
        </mxCell>
        <mxCell id="p6OjkSHZk2NeHFK_y6Gc-40" style="edgeStyle=orthogonalEdgeStyle;rounded=0;orthogonalLoop=1;jettySize=auto;html=1;exitX=0;exitY=0.5;exitDx=0;exitDy=0;endArrow=none;endFill=0;entryX=1;entryY=0.5;entryDx=0;entryDy=0;" parent="1" source="p6OjkSHZk2NeHFK_y6Gc-39" target="p6OjkSHZk2NeHFK_y6Gc-42" edge="1">
          <mxGeometry relative="1" as="geometry">
            <mxPoint x="-330" y="170" as="targetPoint" />
          </mxGeometry>
        </mxCell>
        <mxCell id="p6OjkSHZk2NeHFK_y6Gc-39" value="Vodjenje evidencije" style="shape=rhombus;perimeter=rhombusPerimeter;whiteSpace=wrap;html=1;align=center;" parent="1" vertex="1">
          <mxGeometry x="-180" y="135" width="150" height="70" as="geometry" />
        </mxCell>
        <mxCell id="p6OjkSHZk2NeHFK_y6Gc-41" value="(0,M) Overava" style="edgeLabel;html=1;align=center;verticalAlign=middle;resizable=0;points=[];fontSize=12;" parent="1" vertex="1" connectable="0">
          <mxGeometry x="-249.99529411764684" y="160" as="geometry">
            <mxPoint x="-6" y="-5" as="offset" />
          </mxGeometry>
        </mxCell>
        <mxCell id="p6OjkSHZk2NeHFK_y6Gc-42" value="&lt;font style=&quot;font-size: 14px;&quot;&gt;Lice za bezbednost&lt;/font&gt;" style="whiteSpace=wrap;html=1;align=center;" parent="1" vertex="1">
          <mxGeometry x="-425" y="150" width="100" height="40" as="geometry" />
        </mxCell>
        <mxCell id="p6OjkSHZk2NeHFK_y6Gc-43" value="ime" style="ellipse;whiteSpace=wrap;html=1;align=center;" parent="1" vertex="1">
          <mxGeometry x="-520" y="70" width="60" height="29" as="geometry" />
        </mxCell>
        <mxCell id="p6OjkSHZk2NeHFK_y6Gc-44" value="" style="endArrow=none;html=1;rounded=0;entryX=0.08;entryY=0.049;entryDx=0;entryDy=0;exitX=1;exitY=1;exitDx=0;exitDy=0;entryPerimeter=0;" parent="1" source="p6OjkSHZk2NeHFK_y6Gc-43" target="p6OjkSHZk2NeHFK_y6Gc-42" edge="1">
          <mxGeometry width="50" height="50" relative="1" as="geometry">
            <mxPoint x="-400" y="289" as="sourcePoint" />
            <mxPoint x="-414" y="150" as="targetPoint" />
          </mxGeometry>
        </mxCell>
        <mxCell id="p6OjkSHZk2NeHFK_y6Gc-45" value="id#" style="ellipse;whiteSpace=wrap;html=1;align=center;" parent="1" vertex="1">
          <mxGeometry x="-340" y="70" width="60" height="29" as="geometry" />
        </mxCell>
        <mxCell id="p6OjkSHZk2NeHFK_y6Gc-46" value="" style="endArrow=none;html=1;rounded=0;entryX=0.845;entryY=0.019;entryDx=0;entryDy=0;exitX=0;exitY=1;exitDx=0;exitDy=0;entryPerimeter=0;" parent="1" source="p6OjkSHZk2NeHFK_y6Gc-45" target="p6OjkSHZk2NeHFK_y6Gc-42" edge="1">
          <mxGeometry width="50" height="50" relative="1" as="geometry">
            <mxPoint x="-440" y="219" as="sourcePoint" />
            <mxPoint x="-330" y="149" as="targetPoint" />
          </mxGeometry>
        </mxCell>
        <mxCell id="p6OjkSHZk2NeHFK_y6Gc-47" value="prezime" style="ellipse;whiteSpace=wrap;html=1;align=center;" parent="1" vertex="1">
          <mxGeometry x="-440" y="65.5" width="80" height="29" as="geometry" />
        </mxCell>
        <mxCell id="p6OjkSHZk2NeHFK_y6Gc-48" value="" style="endArrow=none;html=1;rounded=0;entryX=0.621;entryY=-0.04;entryDx=0;entryDy=0;exitX=0.5;exitY=1;exitDx=0;exitDy=0;entryPerimeter=0;" parent="1" source="p6OjkSHZk2NeHFK_y6Gc-47" target="p6OjkSHZk2NeHFK_y6Gc-42" edge="1">
          <mxGeometry width="50" height="50" relative="1" as="geometry">
            <mxPoint x="-280" y="279" as="sourcePoint" />
            <mxPoint x="-367" y="150" as="targetPoint" />
          </mxGeometry>
        </mxCell>
        <mxCell id="XjySdd2gi-GwcaV57Ylc-37" style="edgeStyle=orthogonalEdgeStyle;rounded=0;orthogonalLoop=1;jettySize=auto;html=1;exitX=1;exitY=0.5;exitDx=0;exitDy=0;entryX=0;entryY=0.5;entryDx=0;entryDy=0;endArrow=none;endFill=0;" parent="1" source="dR7-cXVYRjZlP15LV4le-10" target="XjySdd2gi-GwcaV57Ylc-36" edge="1">
          <mxGeometry relative="1" as="geometry">
            <mxPoint x="-140" y="550" as="sourcePoint" />
          </mxGeometry>
        </mxCell>
        <mxCell id="XjySdd2gi-GwcaV57Ylc-36" value="Radi" style="rhombus;whiteSpace=wrap;html=1;" parent="1" vertex="1">
          <mxGeometry x="80" y="480" width="130" height="80" as="geometry" />
        </mxCell>
        <mxCell id="XjySdd2gi-GwcaV57Ylc-39" style="edgeStyle=orthogonalEdgeStyle;rounded=0;orthogonalLoop=1;jettySize=auto;html=1;exitX=1;exitY=0.5;exitDx=0;exitDy=0;entryX=0.873;entryY=1.04;entryDx=0;entryDy=0;entryPerimeter=0;endArrow=none;endFill=0;" parent="1" source="XjySdd2gi-GwcaV57Ylc-36" edge="1">
          <mxGeometry relative="1" as="geometry">
            <mxPoint x="221.0300000000002" y="382" as="targetPoint" />
          </mxGeometry>
        </mxCell>
        <mxCell id="XjySdd2gi-GwcaV57Ylc-40" value="(0,M) Zaposljava" style="edgeLabel;html=1;align=center;verticalAlign=middle;resizable=0;points=[];fontSize=12;" parent="1" vertex="1" connectable="0">
          <mxGeometry x="-9.995294117646836" y="530" as="geometry">
            <mxPoint x="-15" y="-6" as="offset" />
          </mxGeometry>
        </mxCell>
        <mxCell id="XjySdd2gi-GwcaV57Ylc-41" value="(0,1) Zaposljen" style="edgeLabel;html=1;align=center;verticalAlign=middle;resizable=0;points=[];fontSize=12;" parent="1" vertex="1" connectable="0">
          <mxGeometry x="250.00470588235316" y="450" as="geometry">
            <mxPoint x="-23" y="-3" as="offset" />
          </mxGeometry>
        </mxCell>
        <mxCell id="dR7-cXVYRjZlP15LV4le-10" value="Radno mesto" style="rounded=0;whiteSpace=wrap;html=1;fontSize=14;" parent="1" vertex="1">
          <mxGeometry x="-270" y="511" width="120" height="60" as="geometry" />
        </mxCell>
        <mxCell id="dR7-cXVYRjZlP15LV4le-13" value="id#" style="ellipse;whiteSpace=wrap;html=1;align=center;" parent="1" vertex="1">
          <mxGeometry x="-270" y="430" width="60" height="31.5" as="geometry" />
        </mxCell>
        <mxCell id="dR7-cXVYRjZlP15LV4le-14" value="" style="endArrow=none;html=1;rounded=0;entryX=0.25;entryY=0;entryDx=0;entryDy=0;exitX=0.28;exitY=0.95;exitDx=0;exitDy=0;exitPerimeter=0;" parent="1" source="dR7-cXVYRjZlP15LV4le-13" target="dR7-cXVYRjZlP15LV4le-10" edge="1">
          <mxGeometry width="50" height="50" relative="1" as="geometry">
            <mxPoint x="-200" y="660.5" as="sourcePoint" />
            <mxPoint x="-250" y="500.5" as="targetPoint" />
          </mxGeometry>
        </mxCell>
        <mxCell id="dR7-cXVYRjZlP15LV4le-35" value="opis poslova" style="ellipse;whiteSpace=wrap;html=1;" parent="1" vertex="1">
          <mxGeometry x="-230" y="651" width="90" height="49" as="geometry" />
        </mxCell>
        <mxCell id="dR7-cXVYRjZlP15LV4le-36" style="rounded=0;orthogonalLoop=1;jettySize=auto;html=1;exitX=0.5;exitY=0;exitDx=0;exitDy=0;entryX=0.5;entryY=1;entryDx=0;entryDy=0;endArrow=none;endFill=0;" parent="1" source="dR7-cXVYRjZlP15LV4le-35" target="dR7-cXVYRjZlP15LV4le-10" edge="1">
          <mxGeometry relative="1" as="geometry">
            <mxPoint x="-140" y="576" as="targetPoint" />
          </mxGeometry>
        </mxCell>
        <mxCell id="dR7-cXVYRjZlP15LV4le-40" style="rounded=0;orthogonalLoop=1;jettySize=auto;html=1;exitX=0;exitY=1;exitDx=0;exitDy=0;entryX=0.75;entryY=0;entryDx=0;entryDy=0;endArrow=none;endFill=0;" parent="1" source="dR7-cXVYRjZlP15LV4le-41" target="dR7-cXVYRjZlP15LV4le-10" edge="1">
          <mxGeometry relative="1" as="geometry" />
        </mxCell>
        <mxCell id="dR7-cXVYRjZlP15LV4le-41" value="naziv rm" style="ellipse;whiteSpace=wrap;html=1;" parent="1" vertex="1">
          <mxGeometry x="-150" y="450" width="70" height="31" as="geometry" />
        </mxCell>
        <mxCell id="dR7-cXVYRjZlP15LV4le-42" value="prezime" style="ellipse;whiteSpace=wrap;html=1;" parent="1" vertex="1">
          <mxGeometry x="320" y="340" width="70" height="40" as="geometry" />
        </mxCell>
        <mxCell id="dR7-cXVYRjZlP15LV4le-44" style="rounded=0;orthogonalLoop=1;jettySize=auto;html=1;exitX=0.958;exitY=1;exitDx=0;exitDy=0;entryX=0;entryY=0.5;entryDx=0;entryDy=0;endArrow=none;endFill=0;exitPerimeter=0;" parent="1" source="dR7-cXVYRjZlP15LV4le-46" target="dR7-cXVYRjZlP15LV4le-45" edge="1">
          <mxGeometry relative="1" as="geometry">
            <mxPoint x="235" y="380" as="sourcePoint" />
          </mxGeometry>
        </mxCell>
        <mxCell id="dR7-cXVYRjZlP15LV4le-45" value="jmbg#" style="ellipse;whiteSpace=wrap;html=1;" parent="1" vertex="1">
          <mxGeometry x="340" y="410" width="70" height="41" as="geometry" />
        </mxCell>
        <mxCell id="dR7-cXVYRjZlP15LV4le-46" value="Zaposleni" style="rounded=0;whiteSpace=wrap;html=1;fontSize=14;" parent="1" vertex="1">
          <mxGeometry x="125" y="330" width="120" height="60" as="geometry" />
        </mxCell>
        <mxCell id="dR7-cXVYRjZlP15LV4le-47" value="ime" style="ellipse;whiteSpace=wrap;html=1;align=center;" parent="1" vertex="1">
          <mxGeometry x="-30" y="330" width="60" height="30" as="geometry" />
        </mxCell>
        <mxCell id="dR7-cXVYRjZlP15LV4le-51" style="rounded=0;orthogonalLoop=1;jettySize=auto;html=1;exitX=0.5;exitY=1;exitDx=0;exitDy=0;entryX=0.386;entryY=0.045;entryDx=0;entryDy=0;endArrow=none;endFill=0;entryPerimeter=0;" parent="1" source="dR7-cXVYRjZlP15LV4le-50" target="dR7-cXVYRjZlP15LV4le-46" edge="1">
          <mxGeometry relative="1" as="geometry" />
        </mxCell>
        <mxCell id="dR7-cXVYRjZlP15LV4le-52" value="&lt;font style=&quot;font-size: 12px;&quot;&gt;(0,1) Ima&lt;/font&gt;" style="edgeLabel;html=1;align=center;verticalAlign=middle;resizable=0;points=[];" parent="dR7-cXVYRjZlP15LV4le-51" vertex="1" connectable="0">
          <mxGeometry x="0.3613" y="4" relative="1" as="geometry">
            <mxPoint x="23" y="-13" as="offset" />
          </mxGeometry>
        </mxCell>
        <mxCell id="dR7-cXVYRjZlP15LV4le-50" value="Evidentiranje" style="rhombus;whiteSpace=wrap;html=1;" parent="1" vertex="1">
          <mxGeometry x="130" y="230" width="80" height="80" as="geometry" />
        </mxCell>
        <mxCell id="dR7-cXVYRjZlP15LV4le-54" value="datum teorijskog osposobljavanja" style="ellipse;whiteSpace=wrap;html=1;" parent="1" vertex="1">
          <mxGeometry x="210" y="29" width="100" height="50" as="geometry" />
        </mxCell>
        <mxCell id="dR7-cXVYRjZlP15LV4le-55" style="rounded=0;orthogonalLoop=1;jettySize=auto;html=1;exitX=0.343;exitY=-0.027;exitDx=0;exitDy=0;entryX=0.5;entryY=1;entryDx=0;entryDy=0;endArrow=none;endFill=0;exitPerimeter=0;" parent="1" source="p6OjkSHZk2NeHFK_y6Gc-1" target="dR7-cXVYRjZlP15LV4le-56" edge="1">
          <mxGeometry relative="1" as="geometry">
            <mxPoint x="97.52941176470586" y="70" as="targetPoint" />
            <mxPoint x="98" y="120" as="sourcePoint" />
          </mxGeometry>
        </mxCell>
        <mxCell id="dR7-cXVYRjZlP15LV4le-56" value="datum prakticnog osposobljavanja" style="ellipse;whiteSpace=wrap;html=1;" parent="1" vertex="1">
          <mxGeometry x="100" y="20" width="100" height="50" as="geometry" />
        </mxCell>
        <mxCell id="dR7-cXVYRjZlP15LV4le-57" style="rounded=0;orthogonalLoop=1;jettySize=auto;html=1;exitX=0;exitY=0;exitDx=0;exitDy=0;entryX=0.5;entryY=1;entryDx=0;entryDy=0;endArrow=none;endFill=0;" parent="1" source="p6OjkSHZk2NeHFK_y6Gc-1" target="dR7-cXVYRjZlP15LV4le-58" edge="1">
          <mxGeometry relative="1" as="geometry">
            <mxPoint x="-12.470588235294144" y="59" as="targetPoint" />
            <mxPoint x="-12" y="109" as="sourcePoint" />
          </mxGeometry>
        </mxCell>
        <mxCell id="dR7-cXVYRjZlP15LV4le-58" value="datum teorijske provere" style="ellipse;whiteSpace=wrap;html=1;" parent="1" vertex="1">
          <mxGeometry y="9" width="100" height="50" as="geometry" />
        </mxCell>
        <mxCell id="dR7-cXVYRjZlP15LV4le-59" style="rounded=0;orthogonalLoop=1;jettySize=auto;html=1;exitX=0;exitY=0.25;exitDx=0;exitDy=0;entryX=0.5;entryY=1;entryDx=0;entryDy=0;endArrow=none;endFill=0;" parent="1" source="p6OjkSHZk2NeHFK_y6Gc-1" target="dR7-cXVYRjZlP15LV4le-60" edge="1">
          <mxGeometry relative="1" as="geometry">
            <mxPoint x="-132.47058823529414" y="59" as="targetPoint" />
            <mxPoint x="-65" y="107" as="sourcePoint" />
          </mxGeometry>
        </mxCell>
        <mxCell id="dR7-cXVYRjZlP15LV4le-60" value="datum prakticne provere" style="ellipse;whiteSpace=wrap;html=1;" parent="1" vertex="1">
          <mxGeometry x="-70" y="59" width="100" height="50" as="geometry" />
        </mxCell>
        <mxCell id="dR7-cXVYRjZlP15LV4le-62" style="rounded=0;orthogonalLoop=1;jettySize=auto;html=1;exitX=1;exitY=0;exitDx=0;exitDy=0;entryX=0;entryY=0.75;entryDx=0;entryDy=0;endArrow=none;endFill=0;" parent="1" source="dR7-cXVYRjZlP15LV4le-61" target="p6OjkSHZk2NeHFK_y6Gc-1" edge="1">
          <mxGeometry relative="1" as="geometry" />
        </mxCell>
        <mxCell id="dR7-cXVYRjZlP15LV4le-61" value="rizici" style="ellipse;whiteSpace=wrap;html=1;" parent="1" vertex="1">
          <mxGeometry x="-20" y="190" width="60" height="40" as="geometry" />
        </mxCell>
        <mxCell id="dR7-cXVYRjZlP15LV4le-63" style="rounded=0;orthogonalLoop=1;jettySize=auto;html=1;exitX=1;exitY=0;exitDx=0;exitDy=0;entryX=0.103;entryY=1.032;entryDx=0;entryDy=0;endArrow=none;endFill=0;entryPerimeter=0;" parent="1" source="dR7-cXVYRjZlP15LV4le-64" target="p6OjkSHZk2NeHFK_y6Gc-1" edge="1">
          <mxGeometry relative="1" as="geometry">
            <mxPoint x="150" y="220" as="targetPoint" />
          </mxGeometry>
        </mxCell>
        <mxCell id="dR7-cXVYRjZlP15LV4le-64" value="uputstva" style="ellipse;whiteSpace=wrap;html=1;" parent="1" vertex="1">
          <mxGeometry x="10" y="230" width="60" height="40" as="geometry" />
        </mxCell>
        <mxCell id="dR7-cXVYRjZlP15LV4le-66" value="konkretne mere" style="ellipse;whiteSpace=wrap;html=1;" parent="1" vertex="1">
          <mxGeometry x="305" y="210" width="75" height="50" as="geometry" />
        </mxCell>
      </root>
    </mxGraphModel>
  </diagram>
</mxfile>
